<svg width="21" height="16" viewBox="0 0 21 16" fill="none" xmlns="http://www.w3.org/2000/svg">
<path d="M20.7534 7.6C18.7334 2.91 14.9334 0 10.8334 0C6.73344 0 2.93344 2.91 0.913441 7.6C0.858378 7.72617 0.829956 7.86234 0.829956 8C0.829956 8.13766 0.858378 8.27383 0.913441 8.4C2.93344 13.09 6.73344 16 10.8334 16C14.9334 16 18.7334 13.09 20.7534 8.4C20.8085 8.27383 20.8369 8.13766 20.8369 8C20.8369 7.86234 20.8085 7.72617 20.7534 7.6ZM10.8334 14C7.66344 14 4.66344 11.71 2.93344 8C4.66344 4.29 7.66344 2 10.8334 2C14.0034 2 17.0034 4.29 18.7334 8C17.0034 11.71 14.0034 14 10.8334 14ZM10.8334 4C10.0423 4 9.26896 4.2346 8.61116 4.67412C7.95336 5.11365 7.44067 5.73836 7.13792 6.46927C6.83517 7.20017 6.75596 8.00444 6.9103 8.78036C7.06464 9.55628 7.4456 10.269 8.00501 10.8284C8.56442 11.3878 9.27716 11.7688 10.0531 11.9231C10.829 12.0775 11.6333 11.9983 12.3642 11.6955C13.0951 11.3928 13.7198 10.8801 14.1593 10.2223C14.5988 9.56448 14.8334 8.79113 14.8334 8C14.8334 6.93913 14.412 5.92172 13.6619 5.17157C12.9117 4.42143 11.8943 4 10.8334 4ZM10.8334 10C10.4379 10 10.0512 9.8827 9.7223 9.66294C9.3934 9.44318 9.13706 9.13082 8.98568 8.76537C8.83431 8.39991 8.7947 7.99778 8.87187 7.60982C8.94904 7.22186 9.13952 6.86549 9.41923 6.58579C9.69893 6.30608 10.0553 6.1156 10.4433 6.03843C10.8312 5.96126 11.2334 6.00087 11.5988 6.15224C11.9643 6.30362 12.2766 6.55996 12.4964 6.88886C12.7161 7.21776 12.8334 7.60444 12.8334 8C12.8334 8.53043 12.6227 9.03914 12.2477 9.41421C11.8726 9.78929 11.3639 10 10.8334 10Z" fill="#3A3A3A"/>
</svg>
