<svg width="25" height="24" viewBox="0 0 25 24" fill="none" xmlns="http://www.w3.org/2000/svg">
<path d="M3.78846 10.4615H9.17308C9.5811 10.4615 9.97242 10.2995 10.2609 10.0109C10.5495 9.72242 10.7115 9.3311 10.7115 8.92308V3.53846C10.7115 3.13044 10.5495 2.73912 10.2609 2.45061C9.97242 2.16209 9.5811 2 9.17308 2H3.78846C3.38044 2 2.98912 2.16209 2.70061 2.45061C2.41209 2.73912 2.25 3.13044 2.25 3.53846V8.92308C2.25 9.3311 2.41209 9.72242 2.70061 10.0109C2.98912 10.2995 3.38044 10.4615 3.78846 10.4615ZM4.55769 4.30769H8.40385V8.15385H4.55769V4.30769Z" fill="#3A3A3A"/>
<path d="M3.78846 22H9.17308C9.5811 22 9.97242 21.8379 10.2609 21.5494C10.5495 21.2609 10.7115 20.8696 10.7115 20.4615V15.0769C10.7115 14.6689 10.5495 14.2776 10.2609 13.9891C9.97242 13.7005 9.5811 13.5385 9.17308 13.5385H3.78846C3.38044 13.5385 2.98912 13.7005 2.70061 13.9891C2.41209 14.2776 2.25 14.6689 2.25 15.0769V20.4615C2.25 20.8696 2.41209 21.2609 2.70061 21.5494C2.98912 21.8379 3.38044 22 3.78846 22ZM4.55769 15.8462H8.40385V19.6923H4.55769V15.8462Z" fill="#3A3A3A"/>
<path d="M15.3269 10.4615H20.7115C21.1196 10.4615 21.5109 10.2995 21.7994 10.0109C22.0879 9.72242 22.25 9.3311 22.25 8.92308V3.53846C22.25 3.13044 22.0879 2.73912 21.7994 2.45061C21.5109 2.16209 21.1196 2 20.7115 2H15.3269C14.9189 2 14.5276 2.16209 14.2391 2.45061C13.9505 2.73912 13.7885 3.13044 13.7885 3.53846V8.92308C13.7885 9.3311 13.9505 9.72242 14.2391 10.0109C14.5276 10.2995 14.9189 10.4615 15.3269 10.4615ZM16.0962 4.30769H19.9423V8.15385H16.0962V4.30769Z" fill="#3A3A3A"/>
<path d="M19.1731 16.6154H16.8654V18.9231H19.1731V16.6154Z" fill="#3A3A3A"/>
<path d="M21.4808 14.8846C21.4808 14.7316 21.42 14.5849 21.3118 14.4767C21.2036 14.3685 21.0569 14.3077 20.9038 14.3077H19.1731V16.6154H21.4808V14.8846Z" fill="#3A3A3A"/>
<path d="M15.1346 14.3077C14.9816 14.3077 14.8349 14.3685 14.7267 14.4767C14.6185 14.5849 14.5577 14.7316 14.5577 14.8846V16.6154H16.8654V14.3077H15.1346Z" fill="#3A3A3A"/>
<path d="M20.9038 21.2308C21.0569 21.2308 21.2036 21.17 21.3118 21.0618C21.42 20.9536 21.4808 20.8069 21.4808 20.6538V18.9231H19.1731V21.2308H20.9038Z" fill="#3A3A3A"/>
<path d="M14.5577 20.6538C14.5577 20.8069 14.6185 20.9536 14.7267 21.0618C14.8349 21.17 14.9816 21.2308 15.1346 21.2308H16.8654V18.9231H14.5577V20.6538Z" fill="#3A3A3A"/>
</svg>
