<svg width="19" height="20" viewBox="0 0 19 20" fill="none" xmlns="http://www.w3.org/2000/svg">
<path d="M7.8335 16C8.09871 16 8.35307 15.8946 8.5406 15.7071C8.72814 15.5196 8.8335 15.2652 8.8335 15V9C8.8335 8.73478 8.72814 8.48043 8.5406 8.29289C8.35307 8.10536 8.09871 8 7.8335 8C7.56828 8 7.31393 8.10536 7.12639 8.29289C6.93885 8.48043 6.8335 8.73478 6.8335 9V15C6.8335 15.2652 6.93885 15.5196 7.12639 15.7071C7.31393 15.8946 7.56828 16 7.8335 16ZM17.8335 4H13.8335V3C13.8335 2.20435 13.5174 1.44129 12.9548 0.87868C12.3922 0.316071 11.6291 0 10.8335 0H8.8335C8.03785 0 7.27478 0.316071 6.71218 0.87868C6.14957 1.44129 5.8335 2.20435 5.8335 3V4H1.8335C1.56828 4 1.31393 4.10536 1.12639 4.29289C0.938853 4.48043 0.833496 4.73478 0.833496 5C0.833496 5.26522 0.938853 5.51957 1.12639 5.70711C1.31393 5.89464 1.56828 6 1.8335 6H2.8335V17C2.8335 17.7956 3.14957 18.5587 3.71218 19.1213C4.27479 19.6839 5.03785 20 5.8335 20H13.8335C14.6291 20 15.3922 19.6839 15.9548 19.1213C16.5174 18.5587 16.8335 17.7956 16.8335 17V6H17.8335C18.0987 6 18.3531 5.89464 18.5406 5.70711C18.7281 5.51957 18.8335 5.26522 18.8335 5C18.8335 4.73478 18.7281 4.48043 18.5406 4.29289C18.3531 4.10536 18.0987 4 17.8335 4ZM7.8335 3C7.8335 2.73478 7.93885 2.48043 8.12639 2.29289C8.31393 2.10536 8.56828 2 8.8335 2H10.8335C11.0987 2 11.3531 2.10536 11.5406 2.29289C11.7281 2.48043 11.8335 2.73478 11.8335 3V4H7.8335V3ZM14.8335 17C14.8335 17.2652 14.7281 17.5196 14.5406 17.7071C14.3531 17.8946 14.0987 18 13.8335 18H5.8335C5.56828 18 5.31393 17.8946 5.12639 17.7071C4.93885 17.5196 4.8335 17.2652 4.8335 17V6H14.8335V17ZM11.8335 16C12.0987 16 12.3531 15.8946 12.5406 15.7071C12.7281 15.5196 12.8335 15.2652 12.8335 15V9C12.8335 8.73478 12.7281 8.48043 12.5406 8.29289C12.3531 8.10536 12.0987 8 11.8335 8C11.5683 8 11.3139 8.10536 11.1264 8.29289C10.9389 8.48043 10.8335 8.73478 10.8335 9V15C10.8335 15.2652 10.9389 15.5196 11.1264 15.7071C11.3139 15.8946 11.5683 16 11.8335 16Z" fill="#3A3A3A"/>
</svg>
